<?xml version="1.0" standalone="no"?>
<!DOCTYPE svg PUBLIC "-//W3C//DTD SVG 20010904//EN"
 "http://www.w3.org/TR/2001/REC-SVG-20010904/DTD/svg10.dtd">
<svg version="1.0" xmlns="http://www.w3.org/2000/svg"
 width="512.000000pt" height="512.000000pt" viewBox="0 0 512.000000 512.000000"
 preserveAspectRatio="xMidYMid meet">
<metadata>
Created by potrace 1.14, written by Peter Selinger 2001-2017
</metadata>
<g transform="translate(0.000000,512.000000) scale(0.100000,-0.100000)"
fill="#000000" stroke="none">
<path d="M605 4848 c-94 -9 -158 -40 -226 -107 -66 -67 -98 -132 -107 -221 -4
-36 -7 -937 -6 -2002 0 -1872 1 -1939 19 -1993 37 -107 133 -203 240 -240 50
-17 90 -18 420 -18 406 0 418 1 463 67 56 82 35 175 -53 232 -27 18 -52 19
-383 20 -308 1 -356 3 -369 17 -15 14 -16 201 -16 1957 0 1770 1 1942 16 1957
15 15 187 16 1957 16 1771 0 1942 -1 1957 -16 15 -15 16 -186 16 -1957 0
-1767 -1 -1942 -16 -1957 -14 -15 -130 -16 -1225 -17 l-1208 -1 -36 -25 c-45
-30 -68 -69 -72 -118 -3 -41 15 -96 42 -125 48 -53 -17 -50 1257 -51 649 -1
1210 2 1247 6 153 15 275 122 318 278 17 61 21 3916 4 4000 -27 135 -116 235
-254 286 -41 15 -212 16 -1980 18 -1064 0 -1967 -2 -2005 -6z"/>
<path d="M2110 3774 c-328 -55 -574 -292 -657 -629 -11 -46 -13 -1072 -2
-1137 45 -268 206 -481 454 -599 148 -70 178 -73 640 -73 360 -1 491 4 515 19
4 2 22 7 40 10 51 9 190 77 252 123 118 87 224 226 274 358 47 125 53 186 51
491 -2 267 -3 283 -23 309 -49 67 -57 69 -268 72 l-194 3 20 51 c111 294 -19
672 -300 869 -67 48 -173 96 -258 119 -66 18 -112 22 -274 24 -124 2 -222 -1
-270 -10z m493 -332 c140 -50 243 -149 298 -283 16 -39 23 -80 25 -147 3 -83
1 -99 -21 -142 -13 -26 -43 -64 -66 -83 -77 -67 -79 -67 -606 -67 l-473 0 0
163 c0 238 30 329 149 448 109 108 209 137 461 134 149 -2 184 -5 233 -23z
m757 -1199 c0 -176 -14 -255 -58 -337 -36 -68 -135 -165 -202 -198 -52 -25
-67 -31 -122 -45 -13 -3 -197 -7 -409 -8 -294 -1 -399 1 -438 12 -180 46 -329
199 -361 372 -5 29 -10 123 -10 207 l0 154 800 0 800 0 0 -157z"/>
</g>
</svg>
